<svg width="3400" height="860" viewBox="0 0 3400 860" fill="none" xmlns="http://www.w3.org/2000/svg">
<mask id="mask0_45_384" style="mask-type:alpha" maskUnits="userSpaceOnUse" x="0" y="0" width="3400" height="860">
<path fill-rule="evenodd" clip-rule="evenodd" d="M798.404 208.113C706.745 240.164 641 327.404 641 430C641 532.596 706.745 619.836 798.404 651.887C723.124 776.607 586.301 860 430 860C192.518 860 0 667.482 0 430C0 192.518 192.518 0 430 0C586.301 0 723.124 83.3931 798.404 208.113Z" fill="#F754E1"/>
<path d="M756 427.361C756 335.608 825.714 283.031 928.995 283.031C1032.79 283.031 1101.99 335.608 1101.99 427.361V446.948H855.666C863.928 476.845 894.912 491.794 934.675 491.794C967.725 491.794 997.677 482.515 1008.52 463.443L1092.18 501.072C1064.29 543.856 1005.94 571.691 934.675 571.691C825.714 571.691 756 518.598 756 427.361ZM998.709 389.732C987.349 367.052 962.045 354.68 928.995 354.68C895.429 354.68 869.609 366.536 858.248 389.732H998.709Z" fill="#F754E1"/>
<path d="M1497.21 290.763C1452.8 386.639 1407.87 482 1363.46 577.361C1327.31 650.041 1298.39 682 1241.07 682C1225.58 682 1210.09 678.392 1198.21 674.784L1185.3 592.309C1193.56 595.402 1206.99 597.979 1214.74 597.979C1234.88 597.979 1247.79 593.34 1259.66 579.423L1264.83 572.206L1125.4 290.763H1229.71L1314.92 464.99L1394.44 290.763H1497.21Z" fill="#F754E1"/>
<path d="M1515.33 427.361C1515.33 335.608 1585.05 283.031 1688.33 283.031C1792.13 283.031 1861.32 335.608 1861.32 427.361V446.948H1615C1623.26 476.845 1654.25 491.794 1694.01 491.794C1727.06 491.794 1757.01 482.515 1767.86 463.443L1851.51 501.072C1823.63 543.856 1765.27 571.691 1694.01 571.691C1585.05 571.691 1515.33 518.598 1515.33 427.361ZM1758.04 389.732C1746.68 367.052 1721.38 354.68 1688.33 354.68C1654.76 354.68 1628.94 366.536 1617.58 389.732H1758.04Z" fill="#F754E1"/>
<path d="M2261.71 427.361C2261.71 519.113 2200.77 571.691 2109.88 571.691C2073.74 571.691 2042.75 561.897 2019.51 543.34V677.361H1922.95V290.763H2016.93V313.959C2040.69 294.371 2072.7 283.031 2109.88 283.031C2200.77 283.031 2261.71 335.608 2261.71 427.361ZM2020.03 427.361C2020.03 468.598 2049.46 490.247 2091.81 490.247C2134.15 490.247 2163.59 468.598 2163.59 427.361C2163.59 386.124 2134.15 364.99 2091.81 364.99C2049.46 364.99 2020.03 386.124 2020.03 427.361Z" fill="#F754E1"/>
<path d="M2623.54 417.567V455.711C2623.54 481.485 2630.76 489.732 2647.29 489.732C2655.04 489.732 2670.01 487.155 2677.76 484.577L2666.4 562.928C2658.13 566.536 2631.8 570.66 2616.31 570.66C2579.12 570.66 2552.27 557.773 2538.85 527.361C2538.33 526.33 2536.78 522.722 2536.26 521.691C2509.41 552.103 2467.07 571.175 2415.42 571.175C2355.01 571.175 2307.5 540.763 2307.5 488.701C2307.5 409.835 2425.24 391.278 2524.9 391.278C2520.77 368.598 2498.05 360.866 2463.45 360.866C2428.85 360.866 2402.51 373.237 2391.15 392.309L2312.14 347.464C2339 310.351 2404.06 282.515 2472.23 282.515C2566.73 282.515 2623.54 327.876 2623.54 417.567ZM2441.25 496.948C2481.52 496.948 2521.8 476.33 2526.45 447.464C2526.45 446.948 2526.45 445.918 2526.45 445.402C2453.12 446.948 2408.2 454.165 2408.2 477.361C2408.2 489.732 2421.62 496.433 2441.25 496.948Z" fill="#F754E1"/>
<path d="M2849.23 457.773C2770.73 451.588 2708.77 428.907 2708.77 376.845C2708.77 320.144 2767.64 282 2863.17 282C2937.02 282 3000.02 310.351 3025.84 350.041L2938.57 384.062C2927.2 364.99 2895.19 355.196 2858.01 355.196C2828.57 355.196 2808.43 359.835 2808.43 371.175C2808.43 383.031 2832.7 386.124 2876.6 390.247C2940.63 395.402 3031.52 410.866 3031.52 480.454C3031.52 542.309 2965.42 572.722 2871.95 572.722C2788.29 572.722 2721.68 542.825 2691.72 500.557L2780.55 463.443C2796.04 485.608 2831.67 500.041 2873.5 500.041C2912.23 500.041 2929.79 493.34 2929.79 480.454C2929.79 466.021 2902.93 461.897 2849.23 457.773Z" fill="#F754E1"/>
<path d="M3217.04 457.773C3138.55 451.588 3076.58 428.907 3076.58 376.845C3076.58 320.144 3135.45 282 3230.99 282C3304.83 282 3367.83 310.351 3393.65 350.041L3306.38 384.062C3295.02 364.99 3263 355.196 3225.82 355.196C3196.39 355.196 3176.25 359.835 3176.25 371.175C3176.25 383.031 3200.52 386.124 3244.41 390.247C3308.45 395.402 3399.33 410.866 3399.33 480.454C3399.33 542.309 3333.23 572.722 3239.77 572.722C3156.11 572.722 3089.49 542.825 3059.54 500.557L3148.36 463.443C3163.85 485.608 3199.49 500.041 3241.31 500.041C3280.05 500.041 3297.6 493.34 3297.6 480.454C3297.6 466.021 3270.75 461.897 3217.04 457.773Z" fill="#F754E1"/>
</mask>
<g mask="url(#mask0_45_384)">
<rect width="3399" height="860" fill="url(#paint0_linear_45_384)"/>
</g>
<defs>
<linearGradient id="paint0_linear_45_384" x1="3399" y1="430" x2="-1.69749e-05" y2="409.5" gradientUnits="userSpaceOnUse">
<stop offset="0.324392" stop-color="#F754E1"/>
<stop offset="1" stop-color="#AB0895"/>
</linearGradient>
</defs>
</svg>
